#!OML:ASF Y:\EmotionMaleHayes\Project 1\Capture day 1\Session 1\Male1.ASF
:FULLY-SPECIFIED
:DEGREES
460
root 45.3873 17.1782 -0.229243 817.123 83.6221 821.131
lowerback 7.22366 0.862567 -6.59642
upperback 2.02938 0.717706 -0.52132
thorax -2.01652 0.398953 3.10018
lowerneck -22.0254 1.49018 3.01919
upperneck 26.0655 1.85246 -1.84092
head 12.3316 0.976642 -0.872835
rclavicle -5.11871e-015 2.8625e-014
rhumerus -41.2199 9.87208 -86.4286
rradius 48.3947
rwrist -4.5939
rhand -7.98004 -29.2827
rfingers 7.12502
rthumb 17.928 -58.4764
lclavicle -5.11871e-015 2.8625e-014
lhumerus -42.5235 -17.9165 95.8176
lradius 37.8533
lwrist 5.95527
lhand -13.822 -17.3531
lfingers 7.12502
lthumb 12.3008 12.2651
rfemur 1.20012 1.2684 7.94745
rtibia 13.2199
rfoot -13.169 -2.52376
rtoes 5.50527
lfemur 12.7086 -0.478075 -24.7653
ltibia 0.743197
lfoot -10.3671 7.71711
ltoes 3.5956
461
root 45.4235 17.1711 -0.214273 814.29 83.5184 818.431
lowerback 7.18855 0.945768 -6.89847
upperback 2.16543 0.81917 -0.552382
thorax -1.86833 0.444163 3.22928
lowerneck -22.2079 1.41685 2.97632
upperneck 26.0531 1.73448 -1.78659
head 12.3586 0.924151 -0.8647
rclavicle 9.93923e-016 -9.54166e-015
rhumerus -40.4445 11.1011 -87.0251
rradius 49.2665
rwrist -5.10745
rhand -8.35282 -29.3193
rfingers 7.12502
rthumb 17.5693 -58.5455
lclavicle 9.93923e-016 -9.54166e-015
lhumerus -42.5299 -17.4772 95.6939
lradius 35.6153
lwrist 3.87678
lhand -13.2492 -17.6262
lfingers 7.12502
lthumb 12.853 11.958
rfemur 1.68729 1.57424 7.87726
rtibia 12.8098
rfoot -13.2057 -2.46994
rtoes 5.90583
lfemur 13.1529 -0.659117 -24.9472
ltibia 0.458799
lfoot -10.5412 8.16819
ltoes 3.70314
462
root 45.4673 17.1751 -0.20763 814.03 83.5988 818.054
lowerback 6.77062 0.910487 -6.83607
upperback 2.26735 0.815936 -0.565075
thorax -1.52868 0.429522 3.18667
lowerneck -22.0941 1.56783 3.31456
upperneck 25.915 1.92705 -2.11869
head 12.2946 0.997442 -1.01522
rclavicle -1.86361e-015 3.22031e-014
rhumerus -39.722 12.1015 -87.4866
rradius 50.2913
rwrist -5.21363
rhand -8.25863 -29.8124
rfingers 7.12502
rthumb 17.66 -59.0304
lclavicle -1.86361e-015 3.22031e-014
lhumerus -42.6249 -16.9409 95.5163
lradius 33.609
lwrist 1.87611
lhand -12.8551 -17.9888
lfingers 7.12502
lthumb 13.2329 11.5712
rfemur 2.06056 1.28826 7.91315
rtibia 12.1736
rfoot -12.9603 -2.13719
rtoes 6.1487
lfemur 13.2783 -0.658652 -24.8792
ltibia 0.306499
lfoot -10.6781 8.20918
ltoes 3.92551
463
root 45.4905 17.1819 -0.18972 811.3 83.7035 815.154
lowerback 6.66863 0.996362 -6.91995
upperback 2.22588 0.929645 -0.554395
thorax -1.52823 0.486325 3.2362
lowerneck -22.0836 1.60249 3.43825
upperneck 25.899 1.95971 -2.21281
head 12.2898 1.01134 -1.06625
rclavicle -1.9133e-015 6.36111e-015
rhumerus -39.2538 12.6776 -87.7948
rradius 51.6052
rwrist -4.87403
rhand -7.81845 -30.4172
rfingers 7.12502
rthumb 18.0835 -59.5965
lclavicle -1.9133e-015 6.36111e-015
lhumerus -42.8446 -16.1948 95.2044
lradius 31.8436
lwrist -0.330574
lhand -12.4582 -18.3946
lfingers 7.12502
lthumb 13.6154 11.1401
rfemur 2.05244 1.79548 8.16752
rtibia 11.8254
rfoot -12.8842 -2.35409
rtoes 5.335
lfemur 13.23 -0.806094 -24.71
ltibia 0.227585
lfoot -10.927 8.54777
ltoes 4.29208
464
root 45.5124 17.1872 -0.172152 809.23 83.9508 812.934
lowerback 6.55355 1.06517 -6.8286
upperback 2.2335 1.03619 -0.50649
thorax -1.46739 0.536669 3.22757
lowerneck -22.2983 1.57562 3.54442
upperneck 25.9857 1.90065 -2.30038
head 12.3671 0.982054 -1.12745
rclavicle 8.69683e-015 1.27222e-014
rhumerus -38.6967 13.123 -88.0186
rradius 52.7353
rwrist -4.9567
rhand -7.98616 -30.3314
rfingers 7.12502
rthumb 17.9222 -59.5256
lclavicle 8.69683e-015 1.27222e-014
lhumerus -42.9329 -15.3963 94.7342
lradius 30.1402
lwrist -2.76738
lhand -12.1997 -19.0754
lfingers 7.12502
lthumb 13.8645 10.4424
rfemur 2.07314 2.18941 8.58373
rtibia 11.4943
rfoot -12.8314 -2.48966
rtoes 2.47991
lfemur 13.1993 -0.848632 -24.3333
ltibia 0.141101
lfoot -11.0214 8.74339
ltoes 3.69585
465
root 45.5328 17.1888 -0.165666 807.46 84.5442 811.089
lowerback 6.39353 1.10497 -6.22416
upperback 2.36686 1.14611 -0.383029
thorax -1.24501 0.582303 3.01167
lowerneck -22.2682 1.57185 3.3898
upperneck 25.7452 1.86812 -2.06639
head 12.2607 0.979732 -1.01743
rclavicle -6.16232e-015 9.93923e-015
rhumerus -37.9294 13.5633 -88.1401
rradius 53.6282
rwrist -5.2779
rhand -8.42825 -29.8299
rfingers 7.12502
rthumb 17.4967 -59.0625
lclavicle -6.16232e-015 9.93923e-015
lhumerus -42.8636 -14.5425 94.1578
lradius 28.6256
lwrist -5.07178
lhand -11.7407 -19.5924
lfingers 7.12502
lthumb 14.3069 9.89466
rfemur 2.25054 2.27354 9.35076
rtibia 11.0808
rfoot -12.8076 -2.34647
rtoes 6.76982
lfemur 13.2708 -0.848607 -23.6092
ltibia 0.0717664
lfoot -11.1017 8.94724
ltoes 3.01467
466
root 45.5543 17.1882 -0.166246 805.427 84.7927 809.052
lowerback 6.38784 1.1608 -5.86831
upperback 2.42513 1.24513 -0.369517
thorax -1.18551 0.629997 2.8192
lowerneck -22.5798 1.43964 3.34925
upperneck 25.967 1.67366 -2.02167
head 12.4031 0.895068 -1.02688
rclavicle 8.64713e-015 1.98785e-015
rhumerus -37.411 14.0064 -88.2469
rradius 54.6547
rwrist -5.49945
rhand -8.60267 -29.7624
rfingers 7.12502
rthumb 17.3289 -59.0099
lclavicle 8.64713e-015 1.98785e-015
lhumerus -42.9809 -13.4964 93.4821
lradius 27.3567
lwrist -7.35462
lhand -10.8977 -19.7373
lfingers 7.12502
lthumb 15.119 9.69048
rfemur 2.53693 2.12202 9.61591
rtibia 10.6219
rfoot -12.6765 -2.0757
rtoes 5.01796
lfemur 13.4151 -0.939807 -23.4196
ltibia 0.0585537
lfoot -11.3215 9.27599
ltoes 2.15744
467
root 45.5788 17.1885 -0.161958 803.105 84.4073 806.73
lowerback 6.62541 1.26329 -6.29109
upperback 2.2663 1.32888 -0.494563
thorax -1.49494 0.682937 2.91384
lowerneck -22.349 1.39888 3.11478
upperneck 25.9779 1.60609 -1.66148
head 12.3537 0.894481 -0.862049
rclavicle 4.72114e-015 -5.36719e-015
rhumerus -37.339 14.4477 -88.4253
rradius 55.8791
rwrist -5.63329
rhand -8.666 -30.0677
rfingers 7.12502
rthumb 17.2679 -59.3206
lclavicle 4.72114e-015 -5.36719e-015
lhumerus -43.4707 -12.4064 92.8169
lradius 26.2375
lwrist -9.52893
lhand -10.1837 -19.8784
lfingers 7.12502
lthumb 15.8068 9.49631
rfemur 2.73542 1.93039 9.0902
rtibia 10.2754
rfoot -12.3595 -1.72211
rtoes 6.06587
lfemur 13.5592 -1.07888 -23.9777
ltibia 0.0299487
lfoot -11.6853 9.6536
ltoes 2.14528
468
root 45.6022 17.1869 -0.160488 801.577 84.2784 805.268
lowerback 6.95295 1.34817 -6.35824
upperback 2.12501 1.40377 -0.599818
thorax -1.82988 0.732861 2.8279
lowerneck -22.1675 1.47698 3.19777
upperneck 26.0584 1.69409 -1.63175
head 12.3527 0.950391 -0.850031
rclavicle 5.46658e-016 -2.16675e-014
rhumerus -37.2666 14.7183 -88.5953
rradius 57.0723
rwrist -5.8285
rhand -8.64528 -30.3254
rfingers 7.12502
rthumb 17.2879 -59.5765
lclavicle 5.46658e-016 -2.16675e-014
lhumerus -43.971 -11.6415 92.2021
lradius 25.2487
lwrist -11.1188
lhand -9.6938 -20.0972
lfingers 7.12502
lthumb 16.2785 9.23948
rfemur 3.04867 1.56768 8.82735
rtibia 9.98071
rfoot -12.1929 -1.10281
rtoes 7.79835
lfemur 13.8065 -1.19203 -24.2192
ltibia -0.0488475
lfoot -12.1284 9.83557
ltoes 3.75238
469
root 45.6261 17.1878 -0.152148 799.731 84.0194 803.434
lowerback 6.84214 1.46357 -6.67992
upperback 2.22572 1.55082 -0.680213
thorax -1.68264 0.801551 2.91511
lowerneck -22.2002 1.50428 3.37885
upperneck 26.0837 1.74641 -1.89192
head 12.3753 0.956402 -0.970602
rclavicle -2.72087e-015 1.88845e-014
rhumerus -36.7704 15.1093 -88.5853
rradius 58.0973
rwrist -6.12819
rhand -8.93158 -30.3327
rfingers 7.12502
rthumb 17.0123 -59.6077
lclavicle -2.72087e-015 1.88845e-014
lhumerus -44.0457 -10.7892 91.4774
lradius 24.3245
lwrist -12.5901
lhand -9.21189 -20.3707
lfingers 7.12502
lthumb 16.7425 8.92734
rfemur 3.30001 1.54354 8.51811
rtibia 9.59879
rfoot -12.0223 -0.867613
rtoes 8.0623
lfemur 13.9632 -1.11791 -24.4874
ltibia -0.0922892
lfoot -12.3525 9.99429
ltoes 4.10212
470
root 45.6457 17.1863 -0.144521 797.032 84.1448 800.763
lowerback 6.8047 1.58035 -6.62695
upperback 2.31048 1.71823 -0.630076
thorax -1.59066 0.880718 2.92484
lowerneck -22.2781 1.42141 3.42233
upperneck 26.1114 1.63329 -1.97267
head 12.3993 0.899038 -1.02796
rclavicle 3.90115e-015 4.17448e-015
rhumerus -36.3687 15.4604 -88.5384
rradius 59.1602
rwrist -6.41341
rhand -9.49987 -30.1935
rfingers 7.12502
rthumb 16.4652 -59.5148
lclavicle 3.90115e-015 4.17448e-015
lhumerus -44.1244 -9.6926 90.616
lradius 23.5614
lwrist -14.1818
lhand -8.39501 -20.4564
lfingers 7.12502
lthumb 17.5287 8.7734
rfemur 3.47589 1.61239 8.74563
rtibia 9.35027
rfoot -11.93 -0.689587
rtoes 8.3561
lfemur 14.1561 -1.01004 -24.2414
ltibia -0.188881
lfoot -12.2997 10.1931
ltoes 2.86222
